<?xml version="1.0" encoding="UTF-8"?>
<svg id="a" data-name="Layer 1" xmlns="http://www.w3.org/2000/svg" viewBox="0 0 678.1 262.14">
  <rect x="95.2" y="138.63" width="494.12" height="8.53" fill="#701f13" stroke-width="0"/>
  <path d="M268.5,199.2c.3.45.68.9,1.12,1.33.3.29.63.58.98.85.6.47,1.29.92,2.05,1.34,2.74,1.51,6.05,2.42,9.36,2.77,3.2.35,6.53.17,9.8-.58,1.77-.4,3.52-.98,5.2-1.71,1.95-.87,5.96-.93,9.87-.98,4.94-.08,10.14-.15,14.74-2.86,2.23-1.32,4.02-3.25,1.99-5.27-2.9-2.88-10.33-3.42-14.56-3.51-3.48-3.04-13.72-4.11-18.64-4.28-3.36-.13-12.26-.34-14.53,2.95-2.23.85-4.33,1.62-6.03,3.39-1.57,1.67-2.87,4.29-1.36,6.56h0ZM290.35,208.86c-.37,0-.92.36-1.22.82-.32.45-.27.81.1.81s.92-.36,1.23-.81c.3-.46.25-.82-.11-.82h0ZM300.76,195.78c.78.06.61.27-.48.64-2,.67-3.65-.86-.74-1.2,1.79-.21,2.18-.01,1.22.56h0ZM268.62,201.92c3.1,3.02,8.15,4.74,13.01,5.28,5.17.55,10.69-.21,15.7-2.41,1.7-.75,5.58-.8,9.36-.87,5.18-.07,10.6-.21,15.42-3.05.98-.57,1.92-1.29,2.63-2.15-.38,5.85.75,5.14-2.41,7.37-4.45,3.15-10.53,3.28-15.52,3.34-3.91.08-7.92.12-9.87.98-2.31,1.03-4.67,1.7-7.01,2.08-8.56,1.4-22.93.26-22.7-12.25h0c.52,4.27,2.37,7.16,5.54,8.71-2.5-1.54-3.91-3.89-4.15-7.03h0ZM324.02,200.21c-.01,2.18-.02,3.27-.02,3.27-1.15,1.75-3.5,3.08-7.09,3.99,3.06-1.22,5.04-3.38,5.91-6.47.8-.53,1.21-.79,1.21-.79h0ZM289.72,207.58c4.29-.92,7.22-1.79,8.77-2.6-.6,2.78-.89,4.17-.89,4.17-4.78,2.38-9.53,3.41-14.26,3.08,4.3-1.2,6.42-2.75,6.39-4.66h0ZM287.07,187.48c8.53-.6,22.01,1.34,15.91,5.5.47-.79-.17-1.68-1.87-2.69,1.91,1.28,1.91,2.56.01,3.87-.22.05-.46.09-.73.12.11-.07.19-.13.26-.21.19-.18.27-.39.25-.58-.01-.2-.12-.39-.33-.57-.42-.37-1.27-.7-2.49-.82.17-.12.29-.23.37-.34.12-.18.11-.36-.03-.52-.03-.03-.09-.04-.14-.01-.05.04-.06.11-.02.13.09.11.11.21.02.33-.07.12-.25.25-.5.39-.12,0-.25,0-.39-.01-.61-.02-1.06-.11-1.36-.23-.61-.24-.19-1.38-.66-.44-.06.12-.04.25.05.37.08.11.24.2.44.29.33.14.83.22,1.5.26,1.51.06,2.51.39,2.96.79.16.14.25.29.26.44.01.13-.04.26-.17.4-.15.14-.39.27-.72.38-.88,0-1.93-.07-3.19-.3-3.12-.55-6.92-1.55-13.36-4-5.12-1.93.57-2.3,3.93-2.54h0ZM302.22,193.69c-.14.12-.34.23-.57.32.21-.11.4-.21.57-.32h0ZM275.58,199.71c7.69-2.02,14.38-1.32,18.44-1.57l-12.18,3.07c6.37-1.34,11.04-2.36,14.05-3.01.04.04.07.07.11.11.1.12.12.26.08.4-.06.14-.17.29-.37.44-.55.39-1.64.72-3.17.79-.66.03-1.19.12-1.56.25-.23.09-.39.19-.51.29-.24.22-.14.68-.1.57.02-.06.11-.2.28-.41.08-.11.31-.17.45-.23.33-.11.8-.19,1.42-.22l.39-.03c.23.14.36.27.41.41.04.1,0,.21-.11.31-.04.04-.04.1,0,.13.03.04.09.04.13,0,.19-.17.25-.35.17-.53-.04-.11-.14-.23-.29-.35,1.26-.12,2.2-.44,2.71-.82.25-.18.41-.37.47-.57.08-.21.04-.41-.1-.59-.02-.01-.02-.02-.04-.04.89-.2,1.6-.35,2.16-.47-.12,1.14-3.47,4.59-6.28,6.09-3.25.66-5.19,1.33-9.18.9-6.45-.72-13.82-3.21-7.36-4.92h0ZM306.72,193.74c7.52-3.15,17.16-.32,12.4,4.28-3.11.37-7.02-.05-11.75-1.27-1.34-.35-2.95-.65-3.68-1,1.36-.06,4.78-.24,10.26-.58l-10.41-.06c.47-.31,1.59-.71,3.19-1.38h0ZM300.22,201.54c-.81-1.25-.15-3.83.99-4.4-.12.16-.18.32-.17.49.03.2.14.4.34.58.42.37,1.26.69,2.5.82-.17.12-.3.24-.38.34-.12.18-.11.36.04.52.03.04.09.04.14.02.04-.04.04-.1.02-.14-.1-.09-.11-.21-.03-.32.07-.12.25-.26.5-.41l.39.04c.62.01,1.07.1,1.37.22.61.25.2,1.39.66.45.06-.12.05-.25-.04-.37-.09-.11-.23-.21-.45-.29-.33-.13-.83-.22-1.49-.26-1.52-.06-2.52-.39-2.97-.79-.16-.14-.25-.29-.26-.43-.01-.15.05-.28.17-.4.06-.06.14-.11.22-.16,2.88.19,7.96.63,16.11,2.26-.55,2.58-8.37,3.16-17.66,2.25h0ZM276.97,190.47c7.74,1.34,20.66,5.29,19.15,5.48-.16.02-.32.04-.49.05l-17.69-1.92c7.16,1.06,12.11,1.8,14.88,2.2-4.8.44-12.79,1.05-21.63,1.91-2.13.22-2.79.92-2.22-2.12.68-3.54,3.35-5.41,8.01-5.61h0ZM325.71,203.72c-.3,3.02.27,1.64-2.79,3.8-4.78,3.37-10.95,3.55-16.31,3.63-3.78.05-7.66.12-9.35.87-2.42,1.08-4.91,1.77-7.34,2.18-12.59,2.06-24.05.38-23.72-15.67,0-.6-.03-1.22-.01-1.79.14-4.41,4.96-7.36,8.99-8.94,2.13-2.56,8.65-3.46,15.51-3.21,7.78.27,16.13,1.95,19.04,4.29,8.1.19,12.88,1.77,14.93,3.82,1.34,1.34,1.62,2.41,1.53,4.75-.04,1.82-.33,4.89-.47,6.27Z" fill="#852e2c" fill-rule="evenodd" stroke-width="0"/>
  <g>
    <path d="M67.66,99.81c-9.86,12.2-18.35,15.48-30.54,15.48C14.32,115.29,0,99.7,0,79.02c0-22.48,15.17-39.03,36.8-39.03,5.09,0,10.39,1.17,16.54,3.71,2.44,1.06,3.82,1.48,4.88,1.48,2.02,0,3.08-1.06,4.67-4.88h2.86v24.92h-2.65c-2.01-5.73-4.56-9.23-7.11-12.2-4.88-5.83-10.6-9.54-17.71-9.54-11.14,0-19.51,11.98-19.51,33.19,0,10.71,1.27,18.45,5.73,25.45,3.08,4.88,9.33,8.06,15.59,8.06,4.67,0,9.12-1.27,13.36-3.61,3.39-1.91,6.36-4.56,11.03-9.44l3.18,2.65Z" fill="#231f20" stroke-width="0"/>
    <path d="M107.85,113.27v-2.65l3.39-.32c3.5-.32,4.88-1.17,4.88-3.5s-1.27-6.04-4.88-14.42h-23.86l-1.38,3.61c-1.27,3.29-3.29,7.74-3.29,10.29,0,2.76,2.33,3.92,8.59,4.35v2.65h-21.42v-2.65c4.88-.85,6.47-2.76,10.5-12.73l23.44-57.8h2.97l23.54,55.36c5.41,12.83,7.32,15.17,11.67,15.17v2.65h-34.15ZM98.95,62.48l-9.97,25.77h20.68l-10.71-25.77Z" fill="#231f20" stroke-width="0"/>
    <path d="M199.7,113.27l-21.95-33.19h-2.97v20.79c0,7.74,1.06,8.7,9.33,9.76v2.65h-35.84v-2.65c8.27-.95,9.33-1.7,9.33-10.07v-45.71c0-8.27-1.49-10.07-9.33-10.61v-2.65h32.66c20.68,0,31.39,6.04,31.39,18.24,0,4.77-1.7,9.65-4.77,12.51-2.97,2.65-5.73,4.35-11.88,6.04l21.1,29.91c.95,1.38,2.76,2.33,4.67,2.33v2.65h-21.74ZM174.77,76.69c13.89-.11,19.41-2.86,19.41-15.8,0-11.24-3.92-15.69-13.79-15.69-4.14,0-5.62,1.27-5.62,4.77v26.72Z" fill="#231f20" stroke-width="0"/>
    <path d="M296.42,44.24c-6.89,1.06-8.27,2.12-8.27,8.8v62.14h-2.97l-47.4-57.8v42c0,8.17,1.8,10.29,9.97,11.24v2.65h-23.97v-2.65c7.74-.95,9.33-2.44,9.33-8.91v-49.84c-4.45-6.15-6.89-7.64-9.01-7.64v-2.65h22.38l37.01,45.6v-31.71c0-8.48-1.91-10.5-9.76-11.24v-2.65h22.69v2.65Z" fill="#231f20" stroke-width="0"/>
    <path d="M300.77,113.27v-2.65c7.95-.74,9.86-2.01,9.86-8.59v-49.84c0-5.94-2.23-7.42-9.86-7.95v-2.65h37.12v2.65c-7.85.32-10.08,2.02-10.08,7.95v49.84c0,6.89,2.02,8.06,10.08,8.59v2.65h-37.12Z" fill="#231f20" stroke-width="0"/>
    <path d="M412.75,99.81c-9.86,12.2-18.35,15.48-30.54,15.48-22.8,0-37.12-15.59-37.12-36.27,0-22.48,15.16-39.03,36.8-39.03,5.09,0,10.39,1.17,16.54,3.71,2.44,1.06,3.82,1.48,4.88,1.48,2.01,0,3.07-1.06,4.67-4.88h2.86v24.92h-2.65c-2.01-5.73-4.56-9.23-7.1-12.2-4.88-5.83-10.61-9.54-17.71-9.54-11.13,0-19.51,11.98-19.51,33.19,0,10.71,1.27,18.45,5.73,25.45,3.08,4.88,9.33,8.06,15.59,8.06,4.67,0,9.12-1.27,13.36-3.61,3.39-1.91,6.36-4.56,11.03-9.44l3.18,2.65Z" fill="#231f20" stroke-width="0"/>
    <path d="M480.21,113.27h-62.04v-2.65c7.85-.85,9.33-2.54,9.33-8.06v-50.8c0-5.41-2.02-7.1-9.33-7.53v-2.65h61.19v21.32h-2.65c-2.44-14.21-7.85-17.71-25.13-17.71-5.52,0-6.89,1.7-6.89,5.73v23.86c11.24-.11,15.91-3.5,17.18-15.8h2.76v35.84h-2.76c-1.06-12.62-5.62-16.44-17.18-16.44v25.66c0,4.56,1.91,5.94,8.8,5.94,8.27,0,14.32-1.59,19.3-5.73,3.61-2.97,5.51-6.15,8.7-13.04h2.97l-4.24,22.06Z" fill="#231f20" stroke-width="0"/>
    <path d="M541.4,113.27l-21.95-33.19h-2.97v20.79c0,7.74,1.06,8.7,9.33,9.76v2.65h-35.84v-2.65c8.27-.95,9.33-1.7,9.33-10.07v-45.71c0-8.27-1.48-10.07-9.33-10.61v-2.65h32.66c20.68,0,31.39,6.04,31.39,18.24,0,4.77-1.7,9.65-4.77,12.51-2.97,2.65-5.73,4.35-11.88,6.04l21.1,29.91c.95,1.38,2.76,2.33,4.67,2.33v2.65h-21.74ZM516.48,76.69c13.89-.11,19.41-2.86,19.41-15.8,0-11.24-3.92-15.69-13.79-15.69-4.14,0-5.62,1.27-5.62,4.77v26.72Z" fill="#231f20" stroke-width="0"/>
    <path d="M565.9,113.27v-2.65c7.95-.74,9.86-2.01,9.86-8.59v-49.84c0-5.94-2.23-7.42-9.86-7.95v-2.65h37.12v2.65c-7.85.32-10.07,2.02-10.07,7.95v49.84c0,6.89,2.02,8.06,10.07,8.59v2.65h-37.12Z" fill="#231f20" stroke-width="0"/>
    <path d="M643.95,113.27v-2.65l3.39-.32c3.5-.32,4.88-1.17,4.88-3.5s-1.27-6.04-4.88-14.42h-23.86l-1.38,3.61c-1.27,3.29-3.29,7.74-3.29,10.29,0,2.76,2.33,3.92,8.59,4.35v2.65h-21.42v-2.65c4.88-.85,6.47-2.76,10.5-12.73l23.44-57.8h2.97l23.54,55.36c5.41,12.83,7.32,15.17,11.66,15.17v2.65h-34.15ZM635.05,62.48l-9.97,25.77h20.68l-10.71-25.77Z" fill="#231f20" stroke-width="0"/>
  </g>
  <g>
    <g>
      <path d="M154.65,224.85h-23.49v-12.09h3.96v-26.32h-3.96v-12.09h24.18c5.52,0,10.02.34,13.51,1.02,3.51.68,6.81,2.07,9.91,4.18,3.07,2.13,5.49,5.01,7.26,8.64.87,1.74,1.54,3.61,2,5.59.46,1.99.69,4.07.69,6.25,0,4.38-.93,8.37-2.8,11.98-1.84,3.58-4.17,6.33-7.01,8.24-2.76,1.91-5.78,3.16-9.08,3.74-3.27.58-8.33.87-15.17.87ZM154.65,186.43v26.32h1.85c4.6,0,7.59-1.22,8.97-3.67,1.36-2.44,2.03-5.52,2.03-9.22,0-2.23-.29-4.43-.87-6.61-.61-2.18-1.67-3.86-3.2-5.05-1.5-1.19-4.19-1.78-8.06-1.78h-.73Z" fill="#231f20" stroke-width="0"/>
      <path d="M243.96,224.85h-48.18v-12.09h3.92v-26.32h-3.99v-12.09h48.25v16.16h-13.25v-4.07h-11.47v7.77h9.98v10.28h-9.98v8.28h11.47v-4.07h13.25v16.16Z" fill="#231f20" stroke-width="0"/>
      <path d="M372.95,224.85h-28.57v-12.09h4.39v-26.32h-4.39v-12.09h30.86c6.05,0,10.73.35,14.05,1.05,3.27.73,5.83,2.17,7.7,4.32,1.87,2.2,2.8,4.77,2.8,7.7s-.88,5.13-2.65,6.83c-1.82,1.74-4.02,2.95-6.61,3.63,3.56,1.06,6.29,2.71,8.21,4.94,1.94,2.28,2.9,4.83,2.9,7.66,0,3.39-1.09,6.27-3.27,8.64-2.18,2.35-5.17,3.88-8.97,4.61-3.75.75-9.23,1.13-16.45,1.13ZM368.3,185.42v9.22h4.32c2.93,0,4.85-.42,5.77-1.27.87-.85,1.31-1.96,1.31-3.34,0-1.19-.4-2.25-1.2-3.2-.8-.94-2.99-1.42-6.57-1.42h-3.63ZM368.3,203.82v9.95h4.39c2.81,0,4.83-.36,6.06-1.09,1.21-.73,1.82-2.01,1.82-3.85,0-1.72-.54-2.99-1.63-3.81-1.09-.8-3.2-1.2-6.32-1.2h-4.32Z" fill="#231f20" stroke-width="0"/>
      <path d="M423.96,224.85h-20v-12.09h3.85l9.48-26.32h-4.07v-12.09h36.3v12.09h-4.07l9.66,26.32h3.7v12.09h-26.36v-11.07h4.43l-1.92-6.35h-12.92l-2.21,6.35h4.14v11.07ZM428.71,187.16l-4.76,13.98h9.04l-4.28-13.98Z" fill="#231f20" stroke-width="0"/>
      <path d="M490.32,224.85h-27.45v-12.09h4.1v-26.32h-4.1v-12.09h27.45c2.47,0,4.76.04,6.86.13,2.11.08,3.91.21,5.41.36,1.5.16,2.88.37,4.14.64,3.53.75,6.4,2.38,8.6,4.9,2.23,2.57,3.34,5.59,3.34,9.08,0,2.62-.68,4.99-2.03,7.12-1.36,2.11-3.13,3.66-5.34,4.65l6.97,11.54h3.63v12.09h-18.19l-11-20.62h-6.21v8.53h3.81v12.09ZM486.51,185.42v9.62h2.18c2.86,0,4.79-.08,5.81-.25,1.09-.17,2.01-.65,2.76-1.45.75-.75,1.12-1.78,1.12-3.09s-.37-2.35-1.12-3.12c-.75-.8-1.71-1.28-2.87-1.45-1.11-.17-3.15-.25-6.1-.25h-1.78Z" fill="#231f20" stroke-width="0"/>
      <path d="M554.51,224.85h-28.79v-12.09h4.65v-26.32h-4.65v-12.09h28.79v12.09h-4.61v26.32h4.61v12.09Z" fill="#231f20" stroke-width="0"/>
    </g>
    <path d="M69.89,169.59c-1.52-2.15-2.74-4.05-4.14-5.81-.74-.95-1.66-1.33-2.86-.22-2.08,1.94-3.14,1.87-5.12-.15-1.51-1.54-2.92-1.64-4.72-.45-1.39.9-2.95,1.72-4.56,2.09-1.99.47-3.58-.22-4.16-2.56-.94-3.77-.62-7.33,1.93-10.3,2.71-3.16,4.42-6.75,5.32-10.74.31-1.41.87-1.77,2.24-1.82,2.21-.09,4.41-.51,6.61-.79-14.4-.8-19.6-3.09-21.96-9.92,2.9,1.71,6.03,3.55,9.14,5.4.1-.17.19-.33.26-.5-1.86-3.01-3.73-6.01-5.59-9.02,2.84,2.11,5.23,4.49,7.73,6.74.68.62,1.67,1.28,2.5,1.25,5.83-.16,11.86.18,16.31-5.27.31,2.05.6,3.9,1.01,6.59,3.31-3.39,6.19-6.34,9.14-9.35,0,0,18.76,31.34-9.09,44.86Z" fill="#231f20" fill-rule="evenodd" stroke-width="0"/>
    <path d="M619.25,170.59c-11.27-4.35-19.28-15.31-19.28-28.12,0-6.15,1.85-11.88,5.01-16.64,3.45.48,6.15,1.09,7.56,1.67,3.71,1.49,6.93,3.24,9.24,4.63,2.52-1.13,7.42-3.01,11.48-2.79l-1.09,2.66c1.74-.47,3.62-.79,5.31-.7,0,0-4.59,7.34-3.81,9.26.57,1.41,5.72,6.26,7.9,6.53,2.18.27,4.62,0,4.62,0,0,0,1.18,6.22,0,8.98-.86,2.05-10.08,5.45-26.96,8.99v5.54Z" fill="#231f20" stroke-width="0"/>
  </g>
</svg>